<svg width="163" height="162" viewBox="0 0 163 162" fill="none" xmlns="http://www.w3.org/2000/svg">
<g clip-path="url(#clip0_4047_17278)">
<path d="M81.5076 0C59.3734 0 56.5956 0.0967828 47.9021 0.492397C39.2257 0.88971 33.3033 2.26332 28.1212 4.27875C22.7608 6.3604 18.2137 9.14498 13.6837 13.6767C9.15017 18.2068 6.36555 22.7538 4.2771 28.1124C2.25655 33.2961 0.881227 39.2202 0.490702 47.8931C0.101875 56.5865 0 59.366 0 81.5C0 103.634 0.0984818 106.403 0.492403 115.097C0.891417 123.773 2.26505 129.695 4.2788 134.877C6.36216 140.238 9.14677 144.785 13.6786 149.315C18.207 153.848 22.754 156.64 28.111 158.721C33.2965 160.737 39.2206 162.11 47.8953 162.508C56.5888 162.903 59.3649 163 81.4975 163C103.633 163 106.403 162.903 115.096 162.508C123.773 162.11 129.702 160.737 134.887 158.721C140.246 156.64 144.786 153.848 149.315 149.315C153.848 144.785 156.633 140.238 158.721 134.879C160.725 129.695 162.1 123.771 162.508 115.098C162.898 106.405 163 103.634 163 81.5C163 59.366 162.898 56.5882 162.508 47.8948C162.1 39.2185 160.725 33.2961 158.721 28.1141C156.633 22.7538 153.848 18.2068 149.315 13.6767C144.781 9.14328 140.248 6.3587 134.882 4.27875C129.687 2.26332 123.761 0.88971 115.084 0.492397C106.391 0.0967828 103.623 0 81.4822 0L81.5076 0ZM74.1963 14.687C76.3663 14.6836 78.7875 14.687 81.5076 14.687C103.268 14.687 105.848 14.7651 114.441 15.1556C122.387 15.519 126.7 16.8467 129.573 17.9623C133.376 19.4394 136.088 21.2053 138.939 24.0578C141.791 26.9103 143.557 29.6269 145.038 33.4303C146.153 36.2998 147.483 40.6125 147.844 48.5587C148.235 57.1502 148.32 59.731 148.32 81.4813C148.32 103.232 148.235 105.812 147.844 114.404C147.481 122.35 146.153 126.663 145.038 129.532C143.56 133.336 141.791 136.044 138.939 138.895C136.086 141.747 133.378 143.513 129.573 144.99C126.703 146.111 122.387 147.435 114.441 147.799C105.849 148.189 103.268 148.274 81.5076 148.274C59.7452 148.274 57.1661 148.189 48.5745 147.799C40.6282 147.432 36.3154 146.104 33.4408 144.988C29.6374 143.511 26.9207 141.745 24.0682 138.893C21.2157 136.04 19.4498 133.331 17.9692 129.526C16.8537 126.656 15.5242 122.343 15.1626 114.397C14.772 105.806 14.6939 103.225 14.6939 81.4609C14.6939 59.697 14.772 57.1298 15.1626 48.5383C15.5259 40.5921 16.8537 36.2794 17.9692 33.4065C19.4464 29.6032 21.2157 26.8865 24.0682 24.034C26.9207 21.1815 29.6374 19.4157 33.4408 17.9351C36.3137 16.8145 40.6282 15.4901 48.5745 15.125C56.093 14.7855 59.0066 14.6836 74.1963 14.6666V14.687ZM125.012 28.2194C119.613 28.2194 115.232 32.5949 115.232 37.996C115.232 43.3954 119.613 47.776 125.012 47.776C130.412 47.776 134.792 43.3954 134.792 37.996C134.792 32.5966 130.412 28.216 125.012 28.216V28.2194ZM81.5076 39.6464C58.3937 39.6464 39.6536 58.3863 39.6536 81.5C39.6536 104.614 58.3937 123.345 81.5076 123.345C104.622 123.345 123.355 104.614 123.355 81.5C123.355 58.3863 104.62 39.6464 81.5059 39.6464H81.5076ZM81.5076 54.3333C96.5106 54.3333 108.675 66.4955 108.675 81.5C108.675 96.5028 96.5106 108.667 81.5076 108.667C66.503 108.667 54.3407 96.5028 54.3407 81.5C54.3407 66.4955 66.503 54.3333 81.5076 54.3333V54.3333Z" fill="white"/>
</g>
<defs>
<clipPath id="clip0_4047_17278">
<rect width="163" height="162" fill="white"/>
</clipPath>
</defs>
</svg>
