<svg width="200" height="200" viewBox="0 0 200 200" fill="none" xmlns="http://www.w3.org/2000/svg">
<g clip-path="url(#clip0_4105_3135)">
<path fill-rule="evenodd" clip-rule="evenodd" d="M136.035 61.6828C148.09 70.2413 162.968 75.0866 179.154 74.6897L179.667 49.8517C170.673 48.1246 162.773 43.5373 156.897 37.0321C146.738 30.7779 139.543 20.2249 137.628 7.71365L114.936 8.27011L112.33 134.3C111.975 148.993 99.958 161.178 85.4423 161.534C76.8883 161.744 69.3743 157.801 64.6941 151.521C56.1907 147.338 50.4837 138.462 50.6991 128.044C51.0038 113.31 63.041 101.076 77.588 100.719C80.3749 100.651 83.0521 101.025 85.5551 101.773L86.0742 76.6642C54.8215 78.084 29.1625 104.557 28.5049 136.357C28.1767 152.231 34.136 166.468 44.0723 176.733C53.1045 182.74 64.0573 186.103 75.9214 185.812C107.72 185.032 134.038 158.287 134.704 126.076L136.035 61.6828Z" fill="white"/>
<path fill-rule="evenodd" clip-rule="evenodd" d="M179.658 49.8631L179.797 43.1481C171.658 43.3601 163.728 41.2448 156.913 37.0441C162.885 43.6792 170.837 48.1608 179.658 49.8631V49.8631ZM137.665 7.73166C137.483 6.53632 137.349 5.33169 137.264 4.12079L137.347 0.0632493L106.049 0.830742L103.444 126.839C103.09 141.529 91.0867 153.711 76.5857 154.066C72.3278 154.171 68.3301 153.245 64.8078 151.511C69.4828 157.79 76.9886 161.733 85.5333 161.523C100.032 161.168 112.038 148.985 112.393 134.294L114.998 8.28751L137.665 7.73166ZM86.1672 76.6686L86.3151 69.5197C83.7073 69.2212 81.0744 69.1045 78.4348 69.1707C46.6678 69.9497 20.3776 96.689 19.7117 128.892C19.2943 149.082 29.0467 166.628 44.2091 176.717C34.2837 166.454 28.3312 152.219 28.6594 136.348C29.3168 104.555 54.9473 78.0874 86.1672 76.6686V76.6686Z" fill="white"/>
</g>
<defs>
<clipPath id="clip0_4105_3135">
<rect width="200" height="200" fill="white"/>
</clipPath>
</defs>
</svg>
