<svg width="108" height="34" viewBox="0 0 108 34" fill="none" xmlns="http://www.w3.org/2000/svg">
    <path d="M51.6 28.6429C50.1921 28.6429 48.8646 28.3921 47.6175 27.8905C46.3906 27.3688 45.3246 26.6365 44.4195 25.6936C43.5345 24.7506 42.8707 23.6371 42.4282 22.3531L46.2599 20.6377C46.823 21.8615 47.5974 22.8245 48.583 23.5268C49.5887 24.229 50.6949 24.5801 51.9017 24.5801C52.5454 24.5801 53.0985 24.4798 53.5611 24.2791C54.0237 24.0785 54.3858 23.8076 54.6472 23.4666C54.9087 23.1054 55.0395 22.6841 55.0395 22.2026C55.0395 21.6809 54.8786 21.2395 54.5567 20.8784C54.2349 20.4972 53.7321 20.1963 53.0482 19.9756L48.6433 18.531C46.8532 17.9492 45.5056 17.1266 44.6005 16.0633C43.6954 14.9798 43.2428 13.6858 43.2428 12.181C43.2428 10.8569 43.5646 9.6932 44.2083 8.69004C44.872 7.68688 45.7872 6.90442 46.9538 6.34265C48.1405 5.78088 49.4982 5.5 51.0268 5.5C52.3744 5.5 53.6215 5.73073 54.7679 6.19218C55.9144 6.65363 56.9 7.30568 57.7246 8.14834C58.5694 8.99099 59.203 10.0042 59.6254 11.1879L55.8239 12.9033C55.4015 11.86 54.7679 11.0475 53.9232 10.4656C53.0784 9.86374 52.1129 9.56279 51.0268 9.56279C50.4033 9.56279 49.8501 9.66311 49.3674 9.86374C48.8847 10.0644 48.5126 10.3553 48.2511 10.7365C47.9896 11.0976 47.8589 11.5189 47.8589 12.0005C47.8589 12.5221 48.0299 12.9836 48.3718 13.3848C48.7137 13.766 49.2266 14.067 49.9105 14.2877L54.2249 15.672C56.0351 16.2539 57.3827 17.0664 58.2677 18.1097C59.1728 19.153 59.6254 20.427 59.6254 21.9317C59.6254 23.2358 59.2834 24.3995 58.5996 25.4227C57.9157 26.4259 56.9704 27.2184 55.7636 27.8002C54.5769 28.362 53.189 28.6429 51.6 28.6429Z" fill="black"/>
    <path d="M70.561 28.4623C68.5697 28.4623 67.021 27.9306 65.9147 26.8673C64.8286 25.7839 64.2855 24.2791 64.2855 22.3531V15.7623H61.5098V11.85H61.6607C62.5055 11.85 64.2855 11.85 64.2855 11.85C64.2855 11.85 64.2855 10.1647 64.2855 9.32203V8.11824H68.8111V11.85H72.6729V15.7623H68.8111V22.0521C68.8111 22.6139 68.9117 23.0854 69.1128 23.4666C69.3139 23.8277 69.6257 24.0986 70.0481 24.2791C70.4705 24.4597 70.9934 24.55 71.6169 24.55C71.7577 24.55 71.9186 24.5399 72.0997 24.5199C72.2807 24.4998 72.4718 24.4798 72.6729 24.4597V28.2817C72.3712 28.3218 72.0293 28.362 71.6471 28.4021C71.2649 28.4422 70.9029 28.4623 70.561 28.4623Z" fill="black"/>
    <path d="M80.4236 28.6429C79.2369 28.6429 78.2111 28.4523 77.3463 28.0711C76.4814 27.6899 75.8176 27.1482 75.355 26.4459C74.8924 25.7237 74.6611 24.871 74.6611 23.8879C74.6611 22.965 74.8723 22.1524 75.2947 21.4502C75.7171 20.7279 76.3607 20.126 77.2256 19.6445C78.1106 19.163 79.2068 18.8219 80.5142 18.6213L85.5526 17.8087V21.1192L81.3288 21.8715C80.6851 21.9919 80.1923 22.2026 79.8504 22.5035C79.5085 22.7844 79.3375 23.1957 79.3375 23.7374C79.3375 24.239 79.5286 24.6302 79.9107 24.9111C80.2929 25.192 80.7656 25.3324 81.3288 25.3324C82.073 25.3324 82.7266 25.1719 83.2898 24.8509C83.853 24.5299 84.2855 24.0986 84.5872 23.5568C84.909 22.9951 85.0699 22.3832 85.0699 21.7211V17.4476C85.0699 16.8257 84.8185 16.304 84.3156 15.8827C83.8329 15.4614 83.1691 15.2507 82.3244 15.2507C81.5198 15.2507 80.8058 15.4714 80.1823 15.9128C79.5789 16.3542 79.1364 16.936 78.8548 17.6583L75.2343 15.9429C75.5561 15.02 76.069 14.2275 76.773 13.5654C77.477 12.9033 78.3218 12.3917 79.3073 12.0306C80.2929 11.6694 81.369 11.4889 82.5356 11.4889C83.9234 11.4889 85.1503 11.7396 86.2164 12.2412C87.2824 12.7428 88.107 13.445 88.6903 14.3479C89.2937 15.2306 89.5955 16.2639 89.5955 17.4476V28.2817H85.3716V25.6334L86.3974 25.4528C85.9147 26.1751 85.3816 26.777 84.7984 27.2585C84.2151 27.72 83.5614 28.061 82.8373 28.2817C82.1132 28.5225 81.3086 28.6429 80.4236 28.6429Z" fill="black"/>
    <path d="M92.9144 28.2817V11.85H97.1383V15.1002L96.8969 14.3779C97.2791 13.3949 97.8926 12.6726 98.7373 12.2111C99.6022 11.7296 100.608 11.4889 101.754 11.4889C103.001 11.4889 104.088 11.7497 105.013 12.2713C105.958 12.793 106.692 13.5253 107.215 14.4682C107.738 15.3911 108 16.4746 108 17.7185V28.2817H103.474V18.6815C103.474 18.0395 103.343 17.4877 103.082 17.0263C102.841 16.5648 102.489 16.2037 102.026 15.9429C101.583 15.6821 101.06 15.5516 100.457 15.5516C99.8737 15.5516 99.3508 15.6821 98.8882 15.9429C98.4256 16.2037 98.0635 16.5648 97.802 17.0263C97.5607 17.4877 97.44 18.0395 97.44 18.6815V28.2817H92.9144Z" fill="black"/>
    <rect width="33.4286" height="33.4286" rx="16.7143" fill="url(#paint0_linear_38_1868)"/>
    <path d="M10.7687 14.319C10.6028 13.0083 10.9734 11.7132 11.8116 10.6732C12.6849 9.58901 13.9357 8.95475 15.2448 8.8079V7.66709C15.2448 7.07345 15.7411 6.59229 16.3534 6.59229C16.9656 6.59229 17.4619 7.07345 17.4619 7.66709V9.03247C17.9928 9.20588 18.5028 9.46755 18.9688 9.82061L20.8689 11.2598C21.3515 11.6254 21.4369 12.3002 21.0599 12.7681C20.6828 13.236 19.9864 13.3188 19.5042 12.9536L17.6041 11.5144C16.3518 10.5662 14.5371 10.7822 13.5586 11.996C13.0845 12.5842 12.8755 13.3161 12.9693 14.057C13.0632 14.7978 13.4487 15.4591 14.0553 15.9183L16.763 17.9695C17.2456 18.3351 17.331 19.0104 16.9544 19.4783C16.7356 19.7497 16.4098 19.8911 16.0803 19.8911C15.8418 19.8911 15.6013 19.8169 15.3987 19.6634L12.691 17.6122C11.6171 16.799 10.9347 15.6297 10.7687 14.319Z" fill="white"/>
    <path d="M20.4443 16.0998L17.813 14.0488C17.3441 13.6833 16.6673 13.7661 16.3014 14.2339C15.935 14.7018 16.018 15.377 16.4869 15.7425L19.1179 17.7935C19.7073 18.2528 20.0823 18.9139 20.1735 19.6548C20.2647 20.3956 20.0611 21.1274 19.6009 21.7155C19.049 22.42 18.2243 22.7887 17.391 22.7883C16.7883 22.7883 16.1808 22.5954 15.6701 22.1974L13.8238 20.7584C13.3549 20.3928 12.6782 20.4756 12.3119 20.9435C11.9455 21.4113 12.0289 22.0865 12.4978 22.4521L14.3436 23.8911C14.7961 24.2442 15.292 24.5058 15.8078 24.6792V26.0449C15.8078 26.6385 16.29 27.1196 16.8849 27.1196C17.4799 27.1196 17.9621 26.6385 17.9621 26.0449V24.9042C19.2345 24.7577 20.4494 24.1235 21.2983 23.0394C22.9802 20.8915 22.5974 17.7787 20.4447 16.1006L20.4443 16.0998Z" fill="white"/>
    <defs>
        <linearGradient id="paint0_linear_38_1868" x1="9.90476" y1="4.24446e-07" x2="24.2771" y2="32.1674" gradientUnits="userSpaceOnUse">
            <stop stop-color="#6D55FF"/>
            <stop offset="1" stop-color="#3E68FF"/>
        </linearGradient>
    </defs>
</svg>
