<svg width="84" height="26" viewBox="0 0 84 26" fill="none" xmlns="http://www.w3.org/2000/svg">
    <path d="M38.5042 22.1045C37.3775 22.1045 36.3153 21.9038 35.3174 21.5024C34.3357 21.085 33.4827 20.499 32.7584 19.7445C32.0502 18.9899 31.5191 18.0989 31.165 17.0715L34.2311 15.6988C34.6817 16.6781 35.3013 17.4487 36.09 18.0106C36.8947 18.5725 37.7799 18.8535 38.7456 18.8535C39.2606 18.8535 39.7032 18.7732 40.0734 18.6127C40.4436 18.4521 40.7333 18.2354 40.9425 17.9625C41.1517 17.6735 41.2563 17.3364 41.2563 16.9511C41.2563 16.5336 41.1276 16.1805 40.8701 15.8915C40.6126 15.5865 40.2102 15.3456 39.663 15.169L36.1383 14.0131C34.7058 13.5476 33.6275 12.8893 32.9033 12.0385C32.179 11.1715 31.8169 10.1361 31.8169 8.93199C31.8169 7.87241 32.0744 6.94127 32.5894 6.13856C33.1205 5.33584 33.8528 4.70973 34.7863 4.26021C35.7359 3.8107 36.8223 3.58594 38.0455 3.58594C39.1238 3.58594 40.1217 3.77056 41.0391 4.13981C41.9565 4.50905 42.7451 5.03081 43.405 5.70509C44.0809 6.37937 44.5879 7.1901 44.9259 8.1373L41.884 9.50994C41.546 8.67512 41.0391 8.02492 40.3631 7.55935C39.6871 7.07773 38.9146 6.83691 38.0455 6.83691C37.5465 6.83691 37.1039 6.91718 36.7177 7.07773C36.3314 7.23827 36.0337 7.47105 35.8244 7.77608C35.6152 8.06506 35.5106 8.4022 35.5106 8.7875C35.5106 9.20491 35.6474 9.57415 35.921 9.89524C36.1946 10.2003 36.605 10.4411 37.1522 10.6177L40.6045 11.7254C42.053 12.191 43.1314 12.8412 43.8395 13.676C44.5638 14.5108 44.9259 15.5303 44.9259 16.7343C44.9259 17.7778 44.6523 18.709 44.1051 19.5278C43.5579 20.3305 42.8014 20.9646 41.8357 21.4302C40.8862 21.8797 39.7756 22.1045 38.5042 22.1045Z" fill="white"/>
    <path d="M53.6764 21.96C52.083 21.96 50.8437 21.5345 49.9585 20.6837C49.0894 19.8167 48.6549 18.6127 48.6549 17.0715V11.7977H46.4338V8.66709H46.5545C47.2305 8.66709 48.6549 8.66709 48.6549 8.66709C48.6549 8.66709 48.6549 7.31854 48.6549 6.64426V5.68101H52.2762V8.66709H55.3663V11.7977H52.2762V16.8307C52.2762 17.2802 52.3566 17.6574 52.5176 17.9625C52.6785 18.2514 52.928 18.4682 53.266 18.6127C53.604 18.7572 54.0224 18.8294 54.5214 18.8294C54.634 18.8294 54.7628 18.8214 54.9076 18.8053C55.0525 18.7893 55.2054 18.7732 55.3663 18.7572V21.8155C55.1249 21.8476 54.8513 21.8797 54.5455 21.9118C54.2397 21.9439 53.95 21.96 53.6764 21.96Z" fill="white"/>
    <path d="M61.5683 22.1045C60.6187 22.1045 59.7979 21.9519 59.1059 21.6469C58.4138 21.3419 57.8827 20.9084 57.5125 20.3465C57.1423 19.7686 56.9572 19.0863 56.9572 18.2996C56.9572 17.5611 57.1262 16.9109 57.4642 16.349C57.8022 15.7711 58.3172 15.2894 59.0093 14.9041C59.7175 14.5188 60.5946 14.2459 61.6408 14.0854L65.6724 13.4352V16.0841L62.2926 16.6862C61.7776 16.7825 61.3832 16.9511 61.1096 17.1919C60.836 17.4166 60.6992 17.7457 60.6992 18.1792C60.6992 18.5806 60.8521 18.8936 61.1579 19.1184C61.4637 19.3431 61.8419 19.4555 62.2926 19.4555C62.8881 19.4555 63.4112 19.3271 63.8618 19.0702C64.3125 18.8133 64.6585 18.4682 64.8999 18.0347C65.1574 17.5852 65.2862 17.0955 65.2862 16.5658V13.1462C65.2862 12.6485 65.085 12.2311 64.6826 11.894C64.2964 11.5568 63.7652 11.3883 63.0893 11.3883C62.4455 11.3883 61.8741 11.5649 61.3752 11.9181C60.8924 12.2713 60.5383 12.7368 60.313 13.3148L57.4159 11.9421C57.6734 11.2037 58.0839 10.5695 58.6472 10.0397C59.2105 9.50994 59.8864 9.10056 60.6751 8.81158C61.4637 8.5226 62.3248 8.37812 63.2583 8.37812C64.3688 8.37812 65.3506 8.57879 66.2036 8.98015C67.0566 9.3815 67.7165 9.9434 68.1832 10.6658C68.666 11.3722 68.9075 12.199 68.9075 13.1462V21.8155H65.5276V19.6963L66.3484 19.5518C65.9621 20.1298 65.5356 20.6114 65.0689 20.9967C64.6022 21.366 64.0791 21.6389 63.4997 21.8155C62.9203 22.0081 62.2765 22.1045 61.5683 22.1045Z" fill="white"/>
    <path d="M71.5633 21.8155V8.66709H74.9431V11.2679L74.75 10.6899C75.0558 9.90326 75.5467 9.32531 76.2226 8.95607C76.9147 8.57077 77.7194 8.37812 78.6368 8.37812C79.6347 8.37812 80.5038 8.58682 81.2441 9.00423C82.0006 9.42164 82.588 10.0076 83.0065 10.7622C83.425 11.5007 83.6342 12.3676 83.6342 13.3629V21.8155H80.0129V14.1335C80.0129 13.6198 79.9083 13.1783 79.6991 12.8091C79.5059 12.4398 79.2243 12.1509 78.8541 11.9421C78.5 11.7334 78.0816 11.6291 77.5987 11.6291C77.132 11.6291 76.7135 11.7334 76.3433 11.9421C75.9732 12.1509 75.6835 12.4398 75.4742 12.8091C75.2811 13.1783 75.1845 13.6198 75.1845 14.1335V21.8155H71.5633Z" fill="white"/>
    <path fill-rule="evenodd" clip-rule="evenodd" d="M0 13C0 6.09644 5.59644 0.5 12.5 0.5C19.4036 0.5 25 6.09644 25 13C25 19.9036 19.4036 25.5 12.5 25.5C5.59644 25.5 0 19.9036 0 13ZM8.05438 11.2082C7.93026 10.228 8.20741 9.25946 8.83431 8.48165C9.48742 7.67083 10.4228 7.19649 11.4019 7.08667V6.2335C11.4019 5.78953 11.773 5.42969 12.2309 5.42969C12.6888 5.42969 13.06 5.78953 13.06 6.2335V7.25461C13.457 7.3843 13.8384 7.57999 14.1869 7.84404L15.6079 8.92036C15.9688 9.19375 16.0327 9.69846 15.7507 10.0484C15.4688 10.3983 14.9479 10.4602 14.5873 10.1871L13.1663 9.11079C12.2297 8.40162 10.8726 8.56314 10.1408 9.47093C9.78627 9.91081 9.62992 10.4582 9.70011 11.0122C9.7703 11.5663 10.0586 12.0608 10.5123 12.4043L12.5373 13.9383C12.8982 14.2117 12.962 14.7167 12.6804 15.0666C12.5168 15.2696 12.2731 15.3754 12.0267 15.3754C11.8483 15.3754 11.6685 15.3199 11.5169 15.2051L9.49194 13.6711C8.68881 13.063 8.17849 12.1885 8.05438 11.2082ZM13.321 11.0025L15.2889 12.5364L15.2892 12.537C16.8991 13.792 17.1854 16.12 15.9276 17.7263C15.2927 18.537 14.3841 19.0113 13.4325 19.1209V19.974C13.4325 20.4179 13.0719 20.7777 12.627 20.7777C12.182 20.7777 11.8214 20.4179 11.8214 19.974V18.9526C11.4356 18.823 11.0648 18.6273 10.7264 18.3633L9.34596 17.287C8.99529 17.0137 8.93294 16.5087 9.20692 16.1588C9.4809 15.8089 9.987 15.747 10.3377 16.0204L11.7184 17.0966C12.1004 17.3942 12.5547 17.5385 13.0054 17.5385C13.6286 17.5388 14.2454 17.2631 14.6581 16.7362C15.0023 16.2964 15.1545 15.7491 15.0863 15.195C15.0181 14.641 14.7377 14.1465 14.2969 13.8031L12.3293 12.2692C11.9786 11.9958 11.9166 11.4909 12.1905 11.141C12.4642 10.7911 12.9703 10.7292 13.321 11.0025Z" fill="white"/>
</svg>