<svg width="20" height="20" viewBox="0 0 20 20" fill="none" xmlns="http://www.w3.org/2000/svg">
<path d="M9.9999 0.400002C4.6979 0.400002 0.399902 4.698 0.399902 10C0.399902 15.302 4.6979 19.6 9.9999 19.6C15.3019 19.6 19.5999 15.302 19.5999 10C19.5999 4.698 15.3019 0.400002 9.9999 0.400002ZM7.6499 13.979H5.7059V7.723H7.6499V13.979ZM6.6659 6.955C6.0519 6.955 5.6549 6.52 5.6549 5.982C5.6549 5.433 6.0639 5.011 6.6909 5.011C7.3179 5.011 7.7019 5.433 7.7139 5.982C7.7139 6.52 7.3179 6.955 6.6659 6.955ZM14.7499 13.979H12.8059V10.512C12.8059 9.705 12.5239 9.157 11.8209 9.157C11.2839 9.157 10.9649 9.528 10.8239 9.885C10.7719 10.012 10.7589 10.192 10.7589 10.371V13.978H8.8139V9.718C8.8139 8.937 8.7889 8.284 8.7629 7.722H10.4519L10.5409 8.591H10.5799C10.8359 8.183 11.4629 7.581 12.5119 7.581C13.7909 7.581 14.7499 8.438 14.7499 10.28V13.979Z" fill="#142658"/>
</svg>
