<svg width="20" height="20" viewBox="0 0 20 20" fill="none" xmlns="http://www.w3.org/2000/svg">
<path d="M9.9999 0.400002C4.6979 0.400002 0.399902 4.698 0.399902 10C0.399902 15.302 4.6979 19.6 9.9999 19.6C15.3019 19.6 19.5999 15.302 19.5999 10C19.5999 4.698 15.3019 0.400002 9.9999 0.400002ZM13.9049 8.264C13.9089 8.346 13.9099 8.428 13.9099 8.508C13.9099 11.008 12.0089 13.889 8.5309 13.889C7.5032 13.8907 6.49687 13.5956 5.6329 13.039C5.7799 13.057 5.9309 13.064 6.0839 13.064C6.9699 13.064 7.7849 12.763 8.4319 12.255C8.03762 12.2473 7.65557 12.1167 7.33901 11.8815C7.02245 11.6463 6.78715 11.3183 6.6659 10.943C6.94906 10.9968 7.24075 10.9856 7.5189 10.91C7.09095 10.8235 6.7061 10.5916 6.42961 10.2537C6.15312 9.91576 6.00201 9.49262 6.0019 9.056V9.033C6.2569 9.174 6.5489 9.26 6.8589 9.27C6.4577 9.00293 6.17369 8.59267 6.06495 8.12314C5.95621 7.6536 6.03095 7.16025 6.2739 6.744C6.74886 7.328 7.34116 7.80575 8.01247 8.14631C8.68378 8.48688 9.41913 8.68267 10.1709 8.721C10.0753 8.31531 10.1165 7.88941 10.2879 7.50951C10.4594 7.12961 10.7515 6.81699 11.119 6.62027C11.4864 6.42354 11.9086 6.35373 12.3198 6.42167C12.731 6.48962 13.1083 6.69153 13.3929 6.996C13.8161 6.91228 14.2219 6.75706 14.5929 6.537C14.4519 6.97514 14.1566 7.34718 13.7619 7.584C14.1368 7.53885 14.5028 7.43808 14.8479 7.285C14.5944 7.6649 14.275 7.99644 13.9049 8.264V8.264Z" fill="#142658"/>
</svg>
