<svg width="20" height="20" viewBox="0 0 20 20" fill="none" xmlns="http://www.w3.org/2000/svg">
<path fill-rule="evenodd" clip-rule="evenodd" d="M9.9999 0.399998C7.45382 0.399998 5.01203 1.41142 3.21168 3.21177C1.41133 5.01212 0.399902 7.45392 0.399902 10C0.399902 12.5461 1.41133 14.9879 3.21168 16.7882C5.01203 18.5886 7.45382 19.6 9.9999 19.6C11.2606 19.6 12.5089 19.3517 13.6737 18.8692C14.8384 18.3868 15.8967 17.6797 16.7881 16.7882C17.6796 15.8968 18.3867 14.8385 18.8691 13.6738C19.3516 12.509 19.5999 11.2607 19.5999 10C19.5999 8.73931 19.3516 7.49096 18.8691 6.32624C18.3867 5.16151 17.6796 4.10321 16.7881 3.21177C15.8967 2.32033 14.8384 1.6132 13.6737 1.13075C12.5089 0.648309 11.2606 0.399998 9.9999 0.399998ZM8.19816 10C8.19816 9.00855 9.00726 8.19945 9.99872 8.19945C10.9902 8.19945 11.7993 9.00855 11.7993 10C11.7993 10.9915 10.9902 11.8006 9.99872 11.8006C9.00726 11.8006 8.19816 10.9915 8.19816 10ZM15.3992 9.72725C15.3991 9.81808 15.399 9.90899 15.399 10C15.399 10.1018 15.3992 10.2034 15.3993 10.305C15.4003 10.9474 15.4012 11.5861 15.3639 12.2287C15.322 13.0932 15.1262 13.8591 14.4927 14.4926C13.8605 15.1248 13.0933 15.322 12.2288 15.3638C11.5754 15.4006 10.9261 15.3999 10.2728 15.3992C10.182 15.3991 10.0911 15.399 10.0001 15.399C9.90925 15.399 9.81852 15.3991 9.72784 15.3992C9.07539 15.3999 8.42596 15.4006 7.77133 15.3638C6.90684 15.322 6.14097 15.1261 5.50746 14.4926C4.87531 13.8604 4.6781 13.0932 4.63623 12.2287C4.59947 11.5753 4.60019 10.925 4.60091 10.2723C4.60101 10.1816 4.60111 10.0908 4.60111 10C4.60111 9.90917 4.60101 9.81843 4.60091 9.72775C4.60019 9.0753 4.59947 8.42588 4.63623 7.77126C4.6781 6.90678 4.87396 6.1409 5.50746 5.5074C6.13962 4.87524 6.90684 4.67803 7.77133 4.63616C8.42475 4.5994 9.074 4.60012 9.72732 4.60084C9.81815 4.60094 9.90906 4.60104 10.0001 4.60104C10.0909 4.60104 10.1816 4.60094 10.2723 4.60084C10.9248 4.60012 11.5742 4.5994 12.2288 4.63616C13.0933 4.67803 13.8592 4.87389 14.4927 5.5074C15.1248 6.13955 15.322 6.90678 15.3639 7.77126C15.4007 8.42468 15.3999 9.07394 15.3992 9.72725ZM7.22832 10C7.22832 11.5331 8.46561 12.7704 9.99872 12.7704C11.5318 12.7704 12.7691 11.5331 12.7691 10C12.7691 8.46689 11.5318 7.22961 9.99872 7.22961C8.46561 7.22961 7.22832 8.46689 7.22832 10ZM12.2356 7.11614C12.2356 7.47409 12.5246 7.76315 12.8826 7.76315C12.9676 7.76326 13.0518 7.7466 13.1303 7.71412C13.2088 7.68164 13.2802 7.63399 13.3403 7.57389C13.4004 7.51378 13.4481 7.44242 13.4805 7.36387C13.513 7.28532 13.5297 7.20114 13.5296 7.11614C13.5296 6.75819 13.2405 6.46913 12.8826 6.46913C12.5246 6.46913 12.2356 6.75819 12.2356 7.11614Z" fill="#142658"/>
</svg>
