<svg width="20" height="20" viewBox="0 0 20 20" fill="none" xmlns="http://www.w3.org/2000/svg">
<path d="M11.6029 9.833L9.3569 8.785C9.1609 8.694 8.9999 8.796 8.9999 9.013V10.987C8.9999 11.204 9.1609 11.306 9.3569 11.215L11.6019 10.167C11.7989 10.075 11.7989 9.925 11.6029 9.833ZM9.9999 0.400002C4.6979 0.400002 0.399902 4.698 0.399902 10C0.399902 15.302 4.6979 19.6 9.9999 19.6C15.3019 19.6 19.5999 15.302 19.5999 10C19.5999 4.698 15.3019 0.400002 9.9999 0.400002ZM9.9999 13.9C5.0859 13.9 4.9999 13.457 4.9999 10C4.9999 6.543 5.0859 6.1 9.9999 6.1C14.9139 6.1 14.9999 6.543 14.9999 10C14.9999 13.457 14.9139 13.9 9.9999 13.9Z" fill="#142658"/>
</svg>
