<svg width="20" height="20" viewBox="0 0 20 20" fill="none" xmlns="http://www.w3.org/2000/svg">
<path fill-rule="evenodd" clip-rule="evenodd" d="M0.399902 10C0.399902 4.698 4.6979 0.399998 9.9999 0.399998C15.3019 0.399998 19.5999 4.698 19.5999 10C19.5999 15.302 15.3019 19.6 9.9999 19.6C4.6979 19.6 0.399902 15.302 0.399902 10ZM12.8223 7.32143C12.881 7.35876 12.9417 7.3932 13.004 7.42462L13.0036 7.42502C13.4093 7.6218 13.8051 7.6818 14 7.661V9.19565C14 9.19565 13.4433 9.17286 13.0307 9.06607C12.4551 8.91608 12.0859 8.6853 12.0859 8.6853C12.0859 8.6853 11.8295 8.52012 11.8102 8.50892V11.6802C11.8102 11.8562 11.7627 12.297 11.6191 12.6649C11.4933 12.9793 11.3135 13.2705 11.0874 13.526C11.0874 13.526 10.7338 13.9536 10.1124 14.2408C9.59542 14.4795 9.13539 14.4929 8.95158 14.4982C8.93613 14.4987 8.92264 14.4991 8.91123 14.4996C8.91123 14.4996 8.06002 14.5328 7.29291 14.0248L7.28922 14.0208V14.0248C7.02974 13.8482 6.79835 13.6352 6.60251 13.3929C6.35966 13.0909 6.21034 12.7325 6.17219 12.6277V12.6237C6.11107 12.4457 5.98267 12.0138 6.00195 11.5978C6.03231 10.8643 6.285 10.4119 6.35187 10.2996C6.52777 9.99114 6.75752 9.71502 7.03078 9.48363C7.34258 9.22858 7.70522 9.03932 8.09581 8.9278C8.4864 8.81628 8.89647 8.78491 9.30012 8.83569L9.29807 10.4099C9.16515 10.3675 9.02609 10.3459 8.8862 10.3459C8.14781 10.3459 7.54889 10.9331 7.54889 11.6586C7.54889 12.3838 8.14781 12.9709 8.8862 12.9709C9.11632 12.9712 9.34254 12.9131 9.54256 12.8021C9.73427 12.6959 9.89627 12.5453 10.0143 12.3637C10.1323 12.1821 10.2028 11.975 10.2194 11.7606V11.757C10.2206 11.7526 10.2206 11.7478 10.2206 11.7438C10.2208 11.7392 10.2212 11.7349 10.2215 11.7308C10.2219 11.7253 10.2223 11.7201 10.2223 11.7146C10.2256 11.6362 10.2256 11.5566 10.2256 11.4766V5.5H11.8111C11.8082 5.5 11.7918 5.64799 11.8316 5.87716H11.8299C11.8775 6.15274 12.0076 6.5467 12.3558 6.93507C12.4949 7.08161 12.6515 7.21133 12.8223 7.32143Z" fill="#142658"/>
</svg>
